<svg width="407" height="1317" viewBox="0 0 407 1317" fill="none" xmlns="http://www.w3.org/2000/svg">
<path d="M52.0723 1.39233C65.6583 13.6197 76.2132 28.8885 89.1167 41.9278C98.3388 51.2469 106.988 61.621 116.755 70.3415C123.363 76.2421 130.483 81.9727 135.083 89.6395C152.564 118.775 177.455 142.471 195.983 170.807C204.72 184.17 213.425 198.921 224.106 210.858C235.325 223.397 242.331 245.242 249.222 260.315C256.219 275.621 262.19 291.785 268.52 307.445C273.858 320.648 274.434 335.282 279.866 348.562C285.89 363.286 288.902 381.125 292.861 396.565C297.548 414.844 305.148 432.583 308.668 451.162C313.351 475.878 315.153 500.887 321.081 525.445C325.564 544.019 327.561 563.481 330.002 582.466C334.207 615.171 331.36 649.795 331.36 682.738C331.36 715.431 331.965 748.187 331.36 780.876C331.106 794.6 328.358 808.958 326.511 822.576C324.378 838.305 325.333 855.473 324.475 871.354C322.75 903.255 328.842 933.267 331.263 964.741C333.249 990.556 335.721 1018.73 332.233 1044.55C330.192 1059.65 329.346 1074.44 325.348 1089.26C321.489 1103.55 316.885 1122.74 309.928 1135.61C293.881 1165.3 270.414 1188.65 246.798 1211.83C233.195 1225.18 216.124 1236.66 200.25 1247.03C182.909 1258.37 167.409 1270.28 147.883 1278.36C135.976 1283.28 122.712 1288.03 110.257 1291.35C98.1663 1294.58 83.6775 1297.87 72.631 1303.57C64.3618 1307.84 53.6444 1306.99 45.0901 1310.55C38.7226 1313.21 30.8544 1315.79 24.1436 1315.79" stroke="#F6F6F6" stroke-width="2" stroke-linecap="round" vector-effect="non-scaling-stroke"/>
<path d="M6.68782 1259.93C7.2242 1255.64 54.8519 1246.01 60.024 1244.61C76.8564 1240.06 94.7172 1230.31 109.481 1220.75C119.496 1214.27 130.78 1209.98 140.901 1203.3C150.183 1197.17 158.53 1188.57 168.054 1183.13C189.517 1170.86 207.432 1151.95 228.178 1138.62C247.788 1126.01 261.587 1104.31 279.187 1089.64C292.556 1078.5 297.49 1063.84 307.213 1050.47C321.119 1031.35 333.613 1011.53 344.354 990.342C382.425 915.257 399.5 831.649 404.576 747.905C407.709 696.198 399.251 647.681 389.739 597.4C381.247 552.517 368.796 507.239 366.174 461.344C365.135 443.171 356.938 424.439 351.53 407.232C343.704 382.329 332.507 359.448 323.02 335.18C313.019 309.597 305.706 283.136 291.018 259.539C280.241 242.225 270.296 223.699 258.047 207.367C238.159 180.849 215.822 159.925 186.382 144.43C164.771 133.056 147.453 119.035 123.543 112.138C105.608 106.964 88.2739 99.4059 70.4003 93.9063C57.596 89.9666 44.0968 90.2139 31.3194 86.1483C25.6668 84.3498 19.6477 85.6203 13.864 84.3058C9.76625 83.3745 5.66626 81.6875 1.45117 81.6875" stroke="#F6F6F6" stroke-width="2" stroke-linecap="round"/>
</svg>
