<svg width="852" height="1257" viewBox="0 0 852 1257" fill="none" xmlns="http://www.w3.org/2000/svg">
<path d="M1.70525 663.797C5.30899 634.756 4.68934 603.724 7.49421 574.256C12.4241 522.464 23.715 478.233 43.5732 443.717C88.8821 364.965 152.046 324.71 208.731 287.017C247.079 261.516 286.011 240.66 325.898 224.617C423.551 185.34 523.922 155.742 624.39 147.018C667.532 143.272 712.944 144.074 755.852 165.924C775.77 176.067 793.276 193.652 806.381 226.26C819.993 260.127 827.244 301.384 832.936 341.965C841.397 402.29 846.91 464.851 849.658 526.611C851.868 576.291 847.646 623.85 841.526 671.029C825.971 790.926 804.346 917.321 761.463 1007.78C692.814 1152.6 580.114 1256.78 474.622 1211.45C431.142 1192.76 388.411 1163.53 344.973 1143.5C319.441 1131.72 291.782 1122.52 267.869 1098.78C232.889 1064.06 210.903 982.088 194.301 916.297C160.966 784.198 128.167 639.85 126.446 492.862C125.978 452.836 129.988 418.331 137.457 382.369C154.739 299.16 177.932 222.216 204.882 150.692C226.298 93.8551 250.684 49.7605 282.873 16.5661C302.725 -3.90579 323.869 0.546578 346.19 6.52018C373.599 13.8553 400.4 32.2024 427.518 43.6039C486.259 68.3014 546.505 82.6027 604.48 115.899C647.074 140.361 688.793 180.304 723.621 237.212C741.872 267.034 750.305 309.147 758.395 351.441C766.771 395.229 770.5 437.702 772.623 483.719C776.217 561.609 781.957 643.331 778.804 720.898C775.843 793.75 766.154 861.589 757.74 931.885C746.346 1027.08 746.393 1143.55 698.843 1198.77C685.14 1214.68 669.461 1224.4 655.212 1238.45C651.278 1242.32 641.331 1247.1 639.629 1255.14" stroke="white" stroke-width="2" stroke-linecap="round" vector-effect="non-scaling-stroke"/>
</svg>
