<svg width="1133" height="81" viewBox="0 0 1133 81" fill="none" xmlns="http://www.w3.org/2000/svg">
<path d="M92.5166 48.3642C96.5984 48.1241 101.834 46.4893 105.123 44.0973C117.988 34.7412 136.584 30.9279 151.671 26.6418C214.177 8.88441 277.25 5.19941 341.936 4.72552C478.016 3.7286 614.576 -0.368861 750.685 3.07695C826.351 4.99255 901.048 20.294 975.57 31.1997C995.383 34.0992 1015.21 41.3505 1034.82 45.7459C1044.57 47.9316 1055 49.6827 1064.2 53.6009C1086.79 63.2104 1106.97 74.417 1131.12 79.7841" stroke="#F6F6F6" stroke-width="2" stroke-linecap="round"/>
<path d="M1117.15 43.1276C1030.58 43.1276 943.462 39.9214 857.066 34.3999C738.199 26.8031 618.294 16.9444 499.132 16.9444C451.533 16.9444 404.986 17.6242 357.646 22.181C305.721 27.1791 253.437 29.2923 201.419 33.4301C134.448 38.7574 68.3498 54.0034 1.74805 62.3286" stroke="#F6F6F6" stroke-width="2" stroke-linecap="round"  vector-effect="non-scaling-stroke"/>
</svg>
