<svg width="1546" height="820" viewBox="0 0 1546 820" fill="none" xmlns="http://www.w3.org/2000/svg">
<path d="M83.0483 213.828C170.915 220.985 259.836 140.593 343.18 117.601C517.352 69.5507 711.423 42.3957 891.977 35.7385C938.353 34.0286 987.204 28.9714 1017.06 67.2755C1067.31 131.751 1117.61 223.529 1129.77 305.952C1176.41 622.199 725.768 772.705 489.421 811.138C281.062 845.019 12.1616 757.383 1.92626 509.147C-3.64146 374.115 17.2817 286.711 149.935 222.326C280.411 158.997 432.35 131.408 571.656 96.5647C725.868 57.9936 882.352 16.0996 1041.51 6.747C1161.22 -0.287841 1294.34 -12.3301 1396.09 60.0279C1449.16 97.774 1497.26 91.0754 1525.99 161.341C1658.72 485.885 1056.43 493.757 895.637 534.675C731.003 576.57 548.557 622.294 377.54 608.364C329.232 604.429 300.307 575.796 257.794 557.437" stroke="white" stroke-width="2" stroke-linecap="round" vector-effect="non-scaling-stroke"/>
</svg>
