<svg width="1105" height="130" viewBox="0 0 1105 130" fill="none" xmlns="http://www.w3.org/2000/svg">
<path d="M26.7529 39.8632C27.888 44.9709 41.3527 47.9346 45.2751 49.4637C59.6047 55.0498 74.2812 60.2698 89.0108 64.6887C118.3 73.4756 146.49 83.2787 175.124 93.5872C277.249 130.352 392.607 128.886 499.311 128.886C585.612 128.886 671.12 129.617 757.071 120.837C797.736 116.683 839.366 115.038 879.356 106.194C906.131 100.273 931.57 89.7954 958.197 83.5019C981.282 78.0454 1005.88 77.0074 1027.92 67.7919C1037.88 63.6306 1047.4 58.5262 1056.63 52.9548C1063.68 48.6907 1070.9 39.8632 1079.32 39.8632" stroke="#F6F6F6" stroke-width="2" stroke-linecap="round"/>
<path d="M1104 1C1093.76 1.57297 1085.1 8.85778 1075.09 11.248C1045.36 18.352 1015.39 25.2375 986.127 34.4767C947.32 46.7284 909.963 64.9 871.918 79.7954C843.171 91.0506 815.078 106.939 785.396 114.866C758.976 121.922 732.992 121.926 706 121.926C669.356 121.926 632.709 122.093 596.066 121.926C529.796 121.625 463.687 115.777 397.372 115.777C312.589 115.777 228.461 110.815 144.117 103.024C107.016 99.5973 72.1633 82.789 37.4409 69.3197C28.0184 65.6646 18.8211 59.5009 9.14323 56.7945C5.94528 55.9001 2.50519 57.6569 1 54.2894" stroke="#F6F6F6" stroke-width="2" stroke-linecap="round" vector-effect="non-scaling-stroke"/>
</svg>
