<svg width="246" height="94" viewBox="0 0 246 94" fill="none" xmlns="http://www.w3.org/2000/svg">
<path d="M36.694 21.4933C37.3754 15.8947 56.2827 14.485 60.1721 14.0381C73.7452 12.4784 87.5843 13.1036 101.231 12.3814C123.291 11.2139 144.813 13.9859 166.675 16.109C176.845 17.0968 186.961 17.7657 197.185 17.7657C201.474 17.7657 206.439 17.1132 210.682 17.8175C216.275 18.7459 223.935 24.0836 228.999 26.6188C234.143 29.1937 238.785 32.2391 241.873 36.8697C253.8 54.7588 228.746 68.1071 214.765 76.0615C202.825 82.8542 191.494 89.1497 177.223 90.9719C156.662 93.5971 133.646 93.6076 113.026 91.3861C91.6404 89.082 70.158 85.7858 49.0569 81.86C32.7981 78.8351 18.7959 76.9103 6.69409 65.8623C-8.29707 52.1765 9.58828 21.7508 22.6865 12.3296C32.0884 5.56703 44.0821 4.20879 55.5786 2.90704C70.2322 1.2478 84.8297 0.854822 99.5859 1.04323C131.709 1.45339 163.808 1.92336 195.937 1.92336" stroke="white" stroke-width="2" stroke-linecap="round" vector-effect="non-scaling-stroke"/>
</svg>
