<svg width="258" height="71" viewBox="0 0 258 71" fill="none" xmlns="http://www.w3.org/2000/svg">
<path d="M16.8474 14.2787C31.3252 15.1629 44.4172 13.2835 58.4181 10.9956C88.9325 6.00913 119.964 1.23502 151.609 1.22442C165.772 1.21967 179.879 3.75504 193.097 7.63971C203.276 10.6309 213.837 9.43837 224.128 11.413C243.038 15.0413 257.822 24.439 256.924 39.1458C255.474 62.8856 213.614 63.1973 188.486 66.4552C156.838 70.5583 122.774 70.6862 90.5083 68.3591C62.5308 66.3412 33.5078 61.614 11.8244 47.8401C6.57195 44.5036 3.18483 42.917 2.02015 37.2874C0.758359 31.1884 4.14029 21.3919 10.8561 17.7942C26.9351 9.18044 52.8127 9.7142 72.1012 10.8923" stroke="white" stroke-width="2" stroke-linecap="round" vector-effect="non-scaling-stroke"/>
</svg>
