<svg width="615" height="521" viewBox="0 0 615 521" fill="none" xmlns="http://www.w3.org/2000/svg">
<path d="M315.97 1C322.867 14.2284 345.458 16.3773 357.248 22.0353C411.521 48.0807 450.261 93.9882 475.878 150.925C493.742 190.63 507.031 232.783 512.31 276.563C517.691 321.182 522.833 375.939 493.197 412.623C467.045 444.994 429.105 465.93 392.424 481.371C351.626 498.544 306.771 511.56 263.026 516.174C229.109 519.752 192.997 520.213 160.19 508.908C133.217 499.613 108.303 480.383 88.4916 459.092C38.0956 404.931 19.7908 319.362 16.9728 245.584C15.936 218.437 18.3865 191.37 23.9722 164.884C29.5809 138.29 36.9905 108.635 53.6745 87.2449C69.8652 66.4867 96.7859 45.5711 122.86 43.0707C157.694 39.7302 193.9 48.6589 228.568 51.3892C270.135 54.6628 312.016 53.8424 353.659 54.4489C382.029 54.862 422.407 49.0636 448.957 64.6797C460.637 71.5492 471.29 84.9051 480.544 94.8941C508.127 124.667 523.731 162.299 543 198.158C561.663 232.891 582.229 266.938 596.123 304.291C607.064 333.706 621.192 370.899 609.763 402.297C599.837 429.564 588.31 460.691 572.343 484.621C562.975 498.662 544.122 505.987 529.18 510.82C507.692 517.771 484.424 517.862 462.238 518.66C442.421 519.373 404.674 520.028 384.707 519.999C365.377 519.971 345.392 520.406 326.379 515.888C297.832 509.104 269.986 495.05 243.374 482.709C192.95 459.325 142.319 434.752 94.3244 406.026C74.5623 394.197 55.9997 382.331 35.0096 372.943C24.0627 368.047 12.9008 362.113 0.999998 360.704" stroke="white" stroke-width="2" stroke-linecap="round" vector-effect="non-scaling-stroke"/>
</svg>
