<svg width="495" height="413" viewBox="0 0 495 413" fill="none" xmlns="http://www.w3.org/2000/svg">
<path d="M333.423 1C341.048 1 357.042 4.61492 362.838 9.5927C368.578 14.521 367.201 11.5293 380.853 21.8877C394.504 32.2462 398.022 32.7077 404.653 38.2346C414.315 46.287 424.541 55.4507 431.279 66.5693C447.567 93.4465 456.87 123.638 458.162 155.842C459.005 176.863 456.665 194.381 451.997 214.6C447.471 234.207 444.606 249.685 434.618 267.091C408.437 312.716 366.12 357.375 319.382 378.25C290.416 391.188 259.176 407.461 227.433 410.944C211.744 412.666 194.331 412.509 178.976 408.765C158.9 403.869 139.943 394.291 120.073 388.422C101.756 383.011 78.925 375.516 62.1986 365.536C39.2614 351.85 23.7 332.154 14.5118 305.961C4.64694 277.838 2.09783 247.454 2.09783 217.597C2.09783 195.097 0.470746 173.02 10.488 152.3C30.3303 111.256 68.6735 91.0436 108.944 78.557C127.411 72.8307 146.112 67.4345 164.592 61.4836C181.481 56.0452 202.843 51.2353 220.413 49.9499C240.485 48.4815 259.761 45.1367 280 45.1367C297.593 45.1367 315.007 43.502 332.652 43.502C347.379 43.502 370.008 39.308 383.25 45.8632C393.755 51.0633 405.908 56.1899 415.954 63.4815C432.401 75.4188 453.482 83.5639 465.268 101.988C472.059 112.604 478.679 124.158 481.705 136.679C485.218 151.212 492.129 166.846 493.606 181.724C498.289 228.923 460.442 268.573 422.889 285.345C406.043 292.869 388.734 298.897 371.949 306.687C364.221 310.274 355.621 313.836 347.549 316.405C344.945 317.233 339.099 319.165 338.046 321.399" stroke="white" stroke-width="2" stroke-linecap="round" vector-effect="non-scaling-stroke"/>
</svg>
