<svg width="767" height="464" viewBox="0 0 767 464" fill="none" xmlns="http://www.w3.org/2000/svg">
<path d="M765.188 150.65C732.184 87.2569 643.469 66.1982 589.342 50.9071C526.408 33.1279 435.218 -17.2836 364.556 8.9071C322.449 24.5138 285.217 43.1264 244.809 67.4999C181.365 105.769 115.444 124.575 51.9048 163.652C-12.1262 203.03 -5.69124 297.452 21.762 353.125C72.1757 455.361 215.475 464.13 307.343 462.356C397.581 460.614 515.109 441.356 604.422 377.654C632.587 357.566 702.122 342.6 715.627 291.74C730.724 234.879 736.581 195.99 736.163 140.979C735.897 106.105 712.518 80.6492 713.652 48.5444" stroke="white" stroke-width="2" stroke-linecap="round" vector-effect="non-scaling-stroke"/>
</svg>
