<svg width="1330" height="1215" viewBox="0 0 1330 1215" fill="none" xmlns="http://www.w3.org/2000/svg">
<path d="M31.4252 949.594C26.6679 919.12 14.7891 889.303 8.66733 858.905C-2.09238 805.477 -0.517275 755.504 17.505 709.726C58.625 605.277 140.455 527.332 213.339 455.856C262.646 407.501 314.477 363.307 369.456 323.212C504.06 225.048 646.205 134.634 795.855 64.4749C860.116 34.3478 929.432 7.25317 1002.36 2.17843C1036.21 -0.177384 1069.02 6.18991 1100.43 29.8779C1133.06 54.4799 1158.63 90.1775 1181.58 126.175C1215.7 179.686 1246.13 237.183 1272.08 295.597C1292.95 342.586 1303.29 391.459 1310.61 441.128C1329.23 567.352 1340.9 703.627 1307.59 817.981C1254.28 1001.05 1119.68 1171.61 943.337 1192.25C870.656 1200.75 795.397 1198.54 722.303 1205.7C679.34 1209.91 634.052 1217.94 589.335 1209.52C523.923 1197.2 461.613 1130.93 413.188 1077.09C315.957 969.003 215.224 848.665 160.804 706.681C145.985 668.017 139.92 631.977 138.6 592.397C135.545 500.815 143.683 411.7 159.442 325.555C171.965 257.099 193.494 199.22 230.727 147.159C253.69 115.051 287.4 106.405 323.437 98.517C367.687 88.8308 414.895 90.2337 460.136 84.6836C558.135 72.6609 654.757 49.5975 754.622 46.4124C827.993 44.0724 905.488 57.3352 978.488 91.3359C1016.74 109.154 1044.4 144.959 1071.61 181.152C1099.77 218.622 1120.41 257.665 1139.86 301.143C1172.77 374.735 1210.3 450.739 1232.84 528.157C1254.02 600.871 1263.2 672.835 1275.18 746.408C1291.41 846.037 1332.53 959.348 1279.71 1042.27C1264.49 1066.17 1244.08 1085.25 1227.37 1107.67C1222.76 1113.86 1209.32 1124.62 1209.57 1133.48" stroke="white" stroke-width="2" stroke-linecap="round" vector-effect="non-scaling-stroke"/>
</svg>
