<svg width="1722" height="668" viewBox="0 0 1722 668" fill="none" xmlns="http://www.w3.org/2000/svg">
<path d="M1720.13 372.782C1721.47 344.528 1712.85 327.358 1686.55 302.902C1652.69 271.413 1612.35 242.287 1570.59 214.399C1517.01 178.615 1457.98 144.612 1392.38 117.301C1311.88 83.7867 1215.59 63.649 1126.01 43.4303C1046.47 25.4766 963.873 10.2425 881.156 3.28929C739.879 -8.58657 603.84 31.7308 482.907 63.2961C392.634 86.8586 291.062 90.4313 198.21 109.807C147.252 120.44 104.381 141.717 52.3555 150.147C31.7257 153.489 27.8416 171.95 24.0018 182.708C11.4678 217.826 -0.198956 255 1.2607 291.868C2.72596 328.877 19.4679 365.163 39.1512 401.043C52.57 425.504 68.9346 455.756 93.7761 477.679C166.383 541.758 271.275 582.827 390.316 606.081C465.402 620.748 542.745 628.841 618.323 642.425C702.213 657.503 785.975 665.643 871.605 666.542C1025.46 668.156 1178.04 665.307 1316.27 628.674C1362.85 616.328 1397.87 596.947 1435.6 576.97C1469.57 558.982 1500.01 537.831 1527.57 516.129C1585.79 470.3 1607.31 406.312 1613.55 347.218C1618.55 299.854 1626.69 239.48 1581.74 194.591C1548.67 161.56 1502 127.681 1447.62 106.391C1411.17 92.1213 1367.51 82.3797 1327.48 73.9685C1294.53 67.0446 1261.2 68.0837 1227.85 65.1228C1214.94 63.9772 1208.95 64.6926 1208.3 72.013" stroke="white" stroke-width="2" stroke-linecap="round" vector-effect="non-scaling-stroke"/>
</svg>
