<svg width="92" height="73" viewBox="0 0 92 73" fill="none" xmlns="http://www.w3.org/2000/svg">
<path d="M7.8005 19.7262C12.8065 20.0319 17.44 17.6359 22.4063 14.7962C33.2301 8.60706 44.2253 2.60925 55.2449 1.33888C60.1766 0.770353 64.9879 2.73796 69.4358 6.08698C72.8608 8.66574 76.5859 7.05565 80.0907 8.61582C86.5305 11.4825 91.3045 20.2688 90.4062 34.9756C88.9563 58.7154 74.3681 60.6928 65.4887 64.943C54.3054 70.296 42.439 71.7797 31.2967 70.7427C21.6351 69.8435 11.7174 66.2831 4.71542 53.4059C3.01933 50.2866 1.90308 48.8387 1.72164 43.2692C1.52507 37.2352 3.09266 27.328 5.57437 23.4716C11.516 14.2387 20.5055 13.741 27.1749 14.1484" stroke="white" stroke-width="2" stroke-linecap="round" vector-effect="non-scaling-stroke"/>
</svg>
