<svg width="477" height="393" viewBox="0 0 477 393" fill="none" xmlns="http://www.w3.org/2000/svg">
<path d="M26.4397 271.018C26.0704 267.327 22.1674 263.952 20.9614 260.202C19.2802 254.974 17.2727 250.287 16.0918 244.857C13.2123 231.618 12.6507 216.679 11.8986 203.148C10.9289 185.702 8.56174 168.744 9.46376 151.163C10.0526 139.686 14.0008 128.432 18.1885 117.837C26.8528 95.9159 39.2369 73.401 56.6042 57.1995C67.8889 46.6722 78.1435 36.4245 90.9619 27.6583C103.139 19.3305 117.333 12.4802 131.068 7.10788C147.106 0.835612 164.47 2.10548 181.32 2.10548C207.355 2.10548 232.549 6.15006 258.084 10.8259C300.566 18.6051 346.66 32.0244 380.094 60.5119C397.1 75.0015 407.903 93.2502 419.592 112.158C425.524 121.754 433.382 131.653 437.38 142.308C441.072 152.149 440.356 163.357 440.356 173.674C440.356 216.989 447.565 264.918 420.133 301.911C384.938 349.373 329.176 382.831 270.596 390.535C243.966 394.037 218.314 391.188 193.021 382.761C175.777 377.016 158.776 369.489 142.093 362.278C129.247 356.726 115.025 351.545 103.204 344.026C94.6234 338.569 86.2455 334.31 78.9232 326.991C69.441 317.513 64.2501 306.385 59.58 293.867C55.2841 282.352 53.0035 268.679 50.3143 256.687C47.8749 245.809 44.4987 235.577 41.6572 224.847C38.7133 213.731 33.9176 203.788 29.6185 193.211C25.4637 182.988 24.171 172.471 18.8648 162.453C12.4768 150.392 2.09173 139.775 2.09173 125.543C2.09173 114.81 0.875609 104.281 7.29949 94.9879C14.5524 84.4954 22.2531 73.0465 32.3915 65.1087C43.4008 56.4889 55.9371 50.2909 67.155 41.9895C77.753 34.1467 87.762 30.0179 100.431 26.4415C114.15 22.5685 126.723 15.5603 140.875 13.0567C168.522 8.16586 199.356 8.95418 226.634 15.4903C244.046 19.6622 261.312 22.939 277.9 29.8215C289.698 34.716 301.349 39.7543 313.476 43.7471C323.37 47.0049 333.684 50.1458 342.964 54.9687C355.998 61.7433 368.114 71.204 380.838 78.6287C416.875 99.6557 446.002 131.593 461.998 170.565C468.877 187.323 473.483 204.046 474.713 222.076C475.674 236.154 477.668 251.928 473.225 265.61C468.683 279.599 461.373 296.399 450.771 306.846C438.613 318.827 422.412 326.915 406.81 333.21C385.538 341.793 362.98 345.369 341.476 353.085C319.646 360.917 297.439 367.677 274.925 373.229C244.164 380.816 216.064 387.019 184.702 379.043C143.89 368.664 102.203 358.192 70.4014 328.749C60.9665 320.013 53.9459 306.711 47.6766 295.625C42.3856 286.268 40.5271 275.076 38.6137 264.664C35.4032 247.193 31.7927 229.478 24.9518 213.017C19.6376 200.23 16.7005 185.461 16.7005 171.646C16.7005 155.122 14.4641 136.745 20.3527 120.946C23.6869 112.001 28.589 103.566 33.4736 95.3935C37.6714 88.3701 46.407 82.5473 52.0051 76.3303" stroke="#F6F6F6" stroke-width="2" stroke-linecap="round" vector-effect="non-scaling-stroke"/>
</svg>
