<svg
  width="212"
  height="196"
  viewBox="0 0 212 196"
  fill="none"
  xmlns="http://www.w3.org/2000/svg"
>
  <path
    d="M35.6233 149.816C33.8246 128.231 32.4449 109.175 41.4011 88.4825C57.1241 52.157 87.5643 19.3939 124.957 5.14921C169.75 -11.9148 204.986 44.1462 210.29 82.4825C215.674 121.397 172.982 152.506 143.401 168.927C123.8 179.808 102.208 186.754 80.1789 190.594C66.0898 193.05 44.9733 197.943 31.4011 190.705C5.72059 177.008 6.18138 144.366 8.06778 119.371C10.721 84.2167 22.6028 53.8184 50.6233 32.1492C66.3313 20.0017 85.8615 11.1395 106.179 17.0381C122.763 21.8529 131.646 47.2386 135.179 61.3714C146.311 105.902 135.772 152.743 94.9567 178.371C84.6074 184.87 70.8889 187.816 58.7344 187.816C47.5493 187.816 30.8952 165.338 25.5122 156.927C11.7248 135.384 2.59098 105.29 1.73445 79.5937C1.07277 59.7434 -0.682273 38.7327 5.62334 19.8159"
    stroke="white"
    stroke-width="2"
    stroke-linecap="round"
    vector-effect="non-scaling-stroke"
  />
</svg>
